<svg width="110" height="111" xmlns="http://www.w3.org/2000/svg" xmlns:xlink="http://www.w3.org/1999/xlink" xml:space="preserve" overflow="hidden"><defs><clipPath id="clip0"><rect x="119" y="101" width="110" height="111"/></clipPath></defs><g clip-path="url(#clip0)" transform="translate(-119 -101)"><path d="M88.3087 65.2724C88.3087 54.1225 80.3445 44.8394 69.8111 42.8013 68.184 42.4759 67.0023 41.0714 67.0023 39.4101L67.0023 30.2298 67.0023 18.1208 67.0023 15.6544C67.0023 14.1301 68.2012 14.387 69.7255 14.3356 69.7426 14.3356 69.7598 14.3356 69.7769 14.3356 71.7465 14.2842 72.6372 15.055 72.6885 17.0075 72.7228 18.4976 72.9626 19.9705 73.0825 21.4435 73.2195 23.3103 74.2643 24.338 75.977 24.9203 79.1113 25.9822 82.2456 27.027 85.2943 28.2944 87.6921 29.2878 89.6104 29.1508 91.5971 27.3524 94.3718 24.8518 95.8961 24.9203 98.6365 27.4209 100.075 28.7397 101.428 30.1784 102.644 31.7028 104.134 33.5525 104.134 34.957 102.37 36.5155 99.0304 39.4614 99.2017 40.7974 101.154 45.045 102.507 47.9738 103.655 51.0053 104.7 54.0711 105.368 56.0236 106.635 56.9314 108.536 57.154 109.529 57.2739 110.574 57.3082 111.568 57.2054 113.486 57.017 114.702 59.0723 114.907 61.0077L114.942 61.0077 114.942 69.2459 114.942 69.2459C114.839 71.267 113.589 73.562 111.568 73.3736 110.557 73.288 109.529 73.3051 108.536 73.425 106.652 73.6477 105.368 74.5725 104.7 76.5079 103.655 79.5566 102.507 82.6053 101.154 85.5341 99.2017 89.7988 99.0304 91.1176 102.37 94.0635 104.134 95.6392 104.134 97.0265 102.644 98.8763 101.411 100.401 100.075 101.839 98.6365 103.158 95.8961 105.659 94.3718 105.71 91.5971 103.227 89.6104 101.428 87.675 101.291 85.2943 102.285 82.2456 103.569 79.1113 104.597 75.977 105.659 74.2471 106.241 73.2195 107.269 73.0825 109.136 72.9626 110.626 72.7399 112.099 72.6885 113.572 72.6372 115.524 71.7294 116.312 69.7769 116.243 69.7598 116.243 69.7426 116.243 69.7255 116.243 68.2012 116.192 67.0023 116.449 67.0023 114.925L67.0023 114 67.0023 100.349 67.0023 91.169C67.0023 89.5076 68.184 88.086 69.8111 87.7777 80.3616 85.7225 88.3087 76.2682 88.3087 65.1354" stroke="#ED1B25" stroke-width="0.685095" stroke-miterlimit="10" fill="none" transform="matrix(1.00442 0 0 1 109.07 89.7748)"/><path d="M43.4693 62.8746C43.5549 62.3607 43.8461 62.4121 44.0858 62.3436 45.85 61.8983 47.6312 61.5215 49.3782 61.0248 50.9882 60.5624 52.5639 60.0143 54.1396 59.432 56.3148 58.6441 58.0618 57.1883 59.7402 55.6639 60.5281 54.9446 61.2817 54.2081 62.0696 53.4888 62.4464 53.1291 62.5149 52.7865 62.3607 52.2385 61.7955 50.0633 62.0353 47.9738 63.3713 46.0897 63.7652 45.5245 64.2961 45.1306 64.947 44.8908 66.163 44.4455 67.105 45.0963 67.0536 46.398 67.0365 46.7234 66.9509 47.066 66.8652 47.3743 66.3857 49.0528 65.6321 50.6114 64.6044 52.0329 64.0563 52.8037 64.0563 52.9064 64.7072 53.6087 66.2486 55.27 67.6702 57.017 68.9034 58.9353 70.1023 60.785 71.0786 62.7375 71.4896 64.8956 72.1918 68.5951 71.2156 71.9349 68.9719 74.9151 68.1669 75.9941 67.1735 76.9019 66.0945 77.7069 65.8376 77.8953 65.5978 78.1179 65.358 78.3406 65.3752 78.4091 65.3923 78.4605 65.4265 78.529 65.752 78.5461 66.0602 78.5975 66.3857 78.5975 69.383 78.5461 72.346 78.2207 75.2919 77.6726 77.9295 77.1759 80.55 76.6278 83.1876 76.114 83.4445 76.0626 83.7186 76.0455 83.9755 76.0112 83.9926 76.0626 84.0097 76.114 84.0269 76.1654 83.9412 76.2168 83.8384 76.2853 83.7528 76.3195 82.3826 76.7991 80.9953 77.2615 79.6423 77.7582 77.0218 78.7002 74.3499 79.334 71.5753 79.6251 69.8796 79.7964 68.184 79.9163 66.4884 80.0876 63.611 80.3787 60.6994 80.4986 57.8734 81.2865 55.3728 81.9716 52.9236 81.5605 50.6799 80.2588 50.1832 79.9677 49.755 79.4538 49.4467 78.94 49.0528 78.2721 49.2926 77.7069 49.9776 77.3472 50.6285 77.0046 51.2965 76.9019 51.9987 77.1074 53.9341 77.6555 55.8695 78.2036 57.8049 78.7859 60.4082 79.5566 60.1513 79.608 62.2751 78.0837 65.4437 75.8057 67.2934 72.6543 67.91 68.8006 68.3039 66.4028 67.8072 64.1249 67.1221 61.864 66.5227 59.8944 65.5293 58.1131 64.5017 56.349 63.8679 55.2871 63.2856 55.0987 62.1723 55.8352 61.3845 56.3662 60.6137 56.9314 59.8944 57.5479 57.6165 59.5005 55.0131 60.7679 52.1186 61.4872 49.8064 62.0696 47.4942 62.532 45.1306 62.7889 44.5654 62.8403 44.0345 62.8403 43.4693 62.8746L43.4693 62.8746Z" stroke="#ED1B25" stroke-width="0.171274" stroke-miterlimit="10" fill="#ED1B25" transform="matrix(1.00442 0 0 1 109.07 89.7748)"/><path d="M41.7565 65.2724C41.7565 54.1225 49.7207 44.8394 60.2541 42.8013 61.8812 42.4759 63.063 41.0714 63.063 39.4101L63.063 30.2298 63.063 16.5793 63.063 15.6544C63.063 14.1301 61.864 14.387 60.3397 14.3356 60.3226 14.3356 60.3055 14.3356 60.2883 14.3356 58.3187 14.2842 57.4281 15.055 57.3767 17.0075 57.3424 18.4976 57.1026 19.9705 56.9827 21.4435 56.8457 23.3103 55.801 24.338 54.0882 24.9203 50.9539 25.9822 47.8196 27.027 44.7709 28.2944 42.3902 29.2878 40.4548 29.1508 38.4681 27.3524 35.6934 24.8518 34.1691 24.9203 31.4287 27.4209 29.99 28.7397 28.637 30.1784 27.4209 31.7028 25.9308 33.5525 25.9308 34.957 27.6949 36.5155 31.0348 39.4614 30.8635 40.7974 28.911 45.045 27.5579 47.9738 26.4104 51.0053 25.3656 54.0711 24.6977 56.0236 23.4302 56.9314 21.5291 57.154 20.5357 57.2739 19.4909 57.3082 18.4976 57.2054 16.5793 57.017 15.3632 59.0723 15.1577 61.0077L15.1235 61.0077 15.1235 69.2459 15.1235 69.2459C15.2262 71.267 16.4765 73.562 18.4976 73.3736 19.5081 73.288 20.5357 73.3051 21.5291 73.425 23.4131 73.6477 24.6977 74.5725 25.3656 76.5079 26.4104 79.5566 27.5579 82.6053 28.911 85.5341 30.8635 89.7988 31.0348 91.1176 27.6949 94.0635 25.9308 95.6392 25.9308 97.0265 27.4209 98.8763 28.6541 100.401 29.99 101.839 31.4287 103.158 34.1691 105.659 35.6934 105.71 38.4681 103.227 40.4548 101.428 42.3902 101.291 44.7709 102.285 47.8196 103.569 50.9539 104.597 54.0882 105.659 55.8181 106.241 56.8457 107.269 56.9827 109.136 57.1026 110.626 57.3253 112.099 57.3767 113.572 57.4281 115.524 58.3358 116.312 60.2883 116.243 60.3055 116.243 60.3226 116.243 60.3397 116.243 61.864 116.192 63.063 116.62 63.063 115.096L63.063 114.171 63.063 100.349 63.063 91.169C63.063 89.5076 61.8812 88.086 60.2541 87.7777 49.7036 85.7225 41.7565 76.2682 41.7565 65.1354" fill="#10539B" transform="matrix(1.00442 0 0 1 109.07 89.7748)"/><path d="M41.7565 65.2724C41.7565 54.1225 49.7207 44.8394 60.2541 42.8013 61.8812 42.4759 63.063 41.0714 63.063 39.4101L63.063 30.2298 63.063 16.5622 63.063 15.6373C63.063 14.1129 61.864 14.3699 60.3397 14.3185 60.3226 14.3185 60.3055 14.3185 60.2883 14.3185 58.3187 14.2671 57.4281 15.0378 57.3767 16.9903 57.3424 18.4804 57.1026 19.9534 56.9827 21.4263 56.8457 23.2932 55.801 24.3209 54.0882 24.9032 50.9539 25.9651 47.8196 27.0099 44.7709 28.2773 42.3902 29.2707 40.4548 29.1336 38.4681 27.3353 35.6934 24.8347 34.1691 24.9032 31.4287 27.4038 29.99 28.7226 28.637 30.1613 27.4209 31.6856 25.9308 33.5354 25.9308 34.9398 27.6949 36.4984 31.0348 39.4443 30.8635 40.7803 28.911 45.0278 27.5579 47.9566 26.4104 50.9882 25.3656 54.054 24.6977 56.0065 23.4302 56.9142 21.5291 57.1369 20.5357 57.2568 19.4909 57.291 18.4976 57.1883 16.5793 56.9999 15.3632 59.0552 15.1577 60.9905L15.1235 60.9905 15.1235 69.2288 15.1235 69.2288C15.2262 71.2498 16.4765 73.5449 18.4976 73.3565 19.5081 73.2709 20.5357 73.288 21.5291 73.4079 23.4131 73.6305 24.6977 74.5554 25.3656 76.4908 26.4104 79.5395 27.5579 82.5882 28.911 85.5169 30.8635 89.7816 31.0348 91.1005 27.6949 94.0635 25.9308 95.6392 25.9308 97.0265 27.4209 98.8763 28.6541 100.401 29.99 101.839 31.4287 103.158 34.1691 105.659 35.6934 105.71 38.4681 103.227 40.4548 101.428 42.3902 101.291 44.7709 102.285 47.8196 103.569 50.9539 104.597 54.0882 105.659 55.8181 106.241 56.8457 107.269 56.9827 109.136 57.1026 110.626 57.3253 112.099 57.3767 113.572 57.4281 115.524 58.3358 116.312 60.2883 116.243 60.3055 116.243 60.3226 116.243 60.3397 116.243 61.864 116.192 63.063 116.62 63.063 115.096L63.063 114.171 63.063 100.366 63.063 91.1861C63.063 89.5247 61.8812 88.1032 60.2541 87.7949 49.7036 85.7396 41.7565 76.2853 41.7565 65.1525" stroke="#1493E0" stroke-width="1.37019" stroke-miterlimit="10" fill="none" transform="matrix(1.00442 0 0 1 109.07 89.7748)"/><path d="M67.9956 40.7974 74.6068 24.2695" stroke="#ED1B25" stroke-width="0.513821" stroke-miterlimit="10" fill="none" transform="matrix(1.00442 0 0 1 109.07 89.7748)"/><path d="M66.9851 15.6544 78.2721 46.0726" stroke="#ED1B25" stroke-width="0.513821" stroke-miterlimit="10" fill="none" transform="matrix(1.00442 0 0 1 109.07 89.7748)"/><path d="M88.1374 28.911 78.2721 46.0726" stroke="#ED1B25" stroke-width="0.513821" stroke-miterlimit="10" fill="none" transform="matrix(1.00442 0 0 1 109.07 89.7748)"/><path d="M74.4869 23.6358 79.0085 46.8605" stroke="#ED1B25" stroke-width="0.513821" stroke-miterlimit="10" fill="none" transform="matrix(1.00442 0 0 1 109.07 89.7748)"/><path d="M96.4613 25.8623 86.3733 55.3556" stroke="#ED1B25" stroke-width="0.513821" stroke-miterlimit="10" fill="none" transform="matrix(1.00442 0 0 1 109.07 89.7748)"/><path d="M99.2531 39.6327 78.6489 45.2848" stroke="#ED1B25" stroke-width="0.513821" stroke-miterlimit="10" fill="none" transform="matrix(1.00442 0 0 1 109.07 89.7748)"/><path d="M96.0674 26.9756 99.8868 39.6327" stroke="#ED1B25" stroke-width="0.513821" stroke-miterlimit="10" fill="none" transform="matrix(1.00442 0 0 1 109.07 89.7748)"/><path d="M87.4009 56.0579 106.618 56.0579" stroke="#ED1B25" stroke-width="0.513821" stroke-miterlimit="10" fill="none" transform="matrix(1.00442 0 0 1 109.07 89.7748)"/><path d="M87.9661 70.3078 114.24 58.2502" stroke="#ED1B25" stroke-width="0.513821" stroke-miterlimit="10" fill="none" transform="matrix(1.00442 0 0 1 109.07 89.7748)"/><path d="M113.897 72.7742 87.4009 56.0579" stroke="#ED1B25" stroke-width="0.513821" stroke-miterlimit="10" fill="none" transform="matrix(1.00442 0 0 1 109.07 89.7748)"/><path d="M106.618 56.0579 87.4009 70.3078" stroke="#ED1B25" stroke-width="0.513821" stroke-miterlimit="10" fill="none" transform="matrix(1.00442 0 0 1 109.07 89.7748)"/><path d="M107.32 73.6991 87.9661 70.3078" stroke="#ED1B25" stroke-width="0.513821" stroke-miterlimit="10" fill="none" transform="matrix(1.00442 0 0 1 109.07 89.7748)"/><path d="M79.0085 83.5473 99.9896 89.4391" stroke="#ED1B25" stroke-width="0.513821" stroke-miterlimit="10" fill="none" transform="matrix(1.00442 0 0 1 109.07 89.7748)"/><path d="M106.618 74.0245 80.0362 83.8384" stroke="#ED1B25" stroke-width="0.513821" stroke-miterlimit="10" fill="none" transform="matrix(1.00442 0 0 1 109.07 89.7748)"/><path d="M80.0362 83.8384 87.9661 101.874" stroke="#ED1B25" stroke-width="0.513821" stroke-miterlimit="10" fill="none" transform="matrix(1.00442 0 0 1 109.07 89.7748)"/><path d="M74.4869 106.429 80.0362 83.8384" stroke="#ED1B25" stroke-width="0.513821" stroke-miterlimit="10" fill="none" transform="matrix(1.00442 0 0 1 109.07 89.7748)"/><path d="M68.6465 89.4391 87.9661 101.874" stroke="#ED1B25" stroke-width="0.513821" stroke-miterlimit="10" fill="none" transform="matrix(1.00442 0 0 1 109.07 89.7748)"/><path d="M67.3791 90.5181 72.2261 115.37" stroke="#ED1B25" stroke-width="0.513821" stroke-miterlimit="10" fill="none" transform="matrix(1.00442 0 0 1 109.07 89.7748)"/><path d="M73.9731 105.213 67.9956 90.4154" stroke="#ED1B25" stroke-width="0.513821" stroke-miterlimit="10" fill="none" transform="matrix(1.00442 0 0 1 109.07 89.7748)"/><path d="M80.0362 83.8384 95.8619 105.213" stroke="#ED1B25" stroke-width="0.513821" stroke-miterlimit="10" fill="none" transform="matrix(1.00442 0 0 1 109.07 89.7748)"/><path d="M103.809 97.8144 80.0362 83.8384" stroke="#ED1B25" stroke-width="0.513821" stroke-miterlimit="10" fill="none" transform="matrix(1.00442 0 0 1 109.07 89.7748)"/><path d="M99.373 90.5181 95.8619 105.213" stroke="#ED1B25" stroke-width="0.513821" stroke-miterlimit="10" fill="none" transform="matrix(1.00442 0 0 1 109.07 89.7748)"/><path d="M87.5037 54.0197 99.2531 39.6327" stroke="#ED1B25" stroke-width="0.513821" stroke-miterlimit="10" fill="none" transform="matrix(1.00442 0 0 1 109.07 89.7748)"/><path d="M88.1374 29.4762 86.596 54.2937" stroke="#ED1B25" stroke-width="0.513821" stroke-miterlimit="10" fill="none" transform="matrix(1.00442 0 0 1 109.07 89.7748)"/><path d="M88.1374 71.0101 99.8868 88.8739" stroke="#ED1B25" stroke-width="0.513821" stroke-miterlimit="10" fill="none" transform="matrix(1.00442 0 0 1 109.07 89.7748)"/><path d="M74.4869 25.9137 113.897 72.7742" stroke="#ED1B25" stroke-width="0.513821" stroke-miterlimit="10" fill="none" transform="matrix(1.00442 0 0 1 109.07 89.7748)"/><path d="M74.4869 25.9137 107.32 73.6991" stroke="#ED1B25" stroke-width="0.513821" stroke-miterlimit="10" fill="none" transform="matrix(1.00442 0 0 1 109.07 89.7748)"/><path d="M95.8619 27.1469 88.1374 100.949" stroke="#ED1B25" stroke-width="0.513821" stroke-miterlimit="10" fill="none" transform="matrix(1.00442 0 0 1 109.07 89.7748)"/><path d="M87.9661 70.3078 95.8619 103.449" stroke="#ED1B25" stroke-width="0.513821" stroke-miterlimit="10" fill="none" transform="matrix(1.00442 0 0 1 109.07 89.7748)"/><path d="M89.1651 30.1613 99.9896 89.4391" stroke="#ED1B25" stroke-width="0.513821" stroke-miterlimit="10" fill="none" transform="matrix(1.00442 0 0 1 109.07 89.7748)"/><path d="M80.0362 82.8964 114.24 58.2502" stroke="#ED1B25" stroke-width="0.513821" stroke-miterlimit="10" fill="none" transform="matrix(1.00442 0 0 1 109.07 89.7748)"/><path d="M68.6465 89.4391 103.809 97.8144" stroke="#ED1B25" stroke-width="0.513821" stroke-miterlimit="10" fill="none" transform="matrix(1.00442 0 0 1 109.07 89.7748)"/><path d="M66.8995 114.531 79.0085 83.5473" stroke="#ED1B25" stroke-width="0.513821" stroke-miterlimit="10" fill="none" transform="matrix(1.00442 0 0 1 109.07 89.7748)"/><path d="M78.2721 46.0726 95.8619 25.3999" stroke="#ED1B25" stroke-width="0.513821" stroke-miterlimit="10" fill="none" transform="matrix(1.00442 0 0 1 109.07 89.7748)"/><path d="M69.1432 41.6538C69.1432 42.628 68.3533 43.4179 67.3791 43.4179 66.4048 43.4179 65.6149 42.628 65.6149 41.6538 65.6149 40.6795 66.4048 39.8896 67.3791 39.8896 68.3534 39.8896 69.1432 40.6795 69.1432 41.6538Z" fill="#1493E0" transform="matrix(1.00442 0 0 1 109.07 89.7748)"/><path d="M69.1432 15.1063C69.1432 16.0806 68.3533 16.8705 67.3791 16.8705 66.4048 16.8705 65.6149 16.0806 65.6149 15.1063 65.6149 14.132 66.4048 13.3422 67.3791 13.3422 68.3534 13.3422 69.1432 14.132 69.1432 15.1063Z" fill="#1493E0" transform="matrix(1.00442 0 0 1 109.07 89.7748)"/><path d="M74.4869 15.1063C74.4869 16.0806 73.6971 16.8705 72.7228 16.8705 71.7485 16.8705 70.9587 16.0806 70.9587 15.1063 70.9587 14.132 71.7485 13.3422 72.7228 13.3422 73.6971 13.3422 74.4869 14.132 74.4869 15.1063Z" fill="#1493E0" transform="matrix(1.00442 0 0 1 109.07 89.7748)"/><path d="M76.251 24.1496C76.251 25.1239 75.4612 25.9137 74.4869 25.9137 73.5126 25.9137 72.7228 25.1239 72.7228 24.1496 72.7228 23.1753 73.5126 22.3855 74.4869 22.3855 75.4612 22.3855 76.251 23.1753 76.251 24.1496Z" fill="#1493E0" transform="matrix(1.00442 0 0 1 109.07 89.7748)"/><path d="M89.9015 28.7397C89.9015 29.714 89.1117 30.5038 88.1374 30.5038 87.1631 30.5038 86.3733 29.714 86.3733 28.7397 86.3733 27.7654 87.1631 26.9756 88.1374 26.9756 89.1117 26.9756 89.9015 27.7654 89.9015 28.7397Z" fill="#1493E0" transform="matrix(1.00442 0 0 1 109.07 89.7748)"/><path d="M97.626 25.3999C97.626 26.3742 96.8362 27.164 95.8619 27.164 94.8876 27.164 94.0977 26.3742 94.0977 25.3999 94.0977 24.4256 94.8876 23.6358 95.8619 23.6358 96.8362 23.6358 97.626 24.4256 97.626 25.3999Z" fill="#1493E0" transform="matrix(1.00442 0 0 1 109.07 89.7748)"/><path d="M105.779 34.4089C105.779 35.3832 104.989 36.173 104.014 36.173 103.04 36.173 102.25 35.3832 102.25 34.4089 102.25 33.4346 103.04 32.6448 104.014 32.6448 104.989 32.6448 105.779 33.4346 105.779 34.4089Z" fill="#1493E0" transform="matrix(1.00442 0 0 1 109.07 89.7748)"/><path d="M101.651 39.6327C101.651 40.607 100.861 41.3968 99.8868 41.3968 98.9125 41.3968 98.1227 40.607 98.1227 39.6327 98.1227 38.6584 98.9125 37.8686 99.8868 37.8686 100.861 37.8686 101.651 38.6584 101.651 39.6327Z" fill="#1493E0" transform="matrix(1.00442 0 0 1 109.07 89.7748)"/><path d="M108.382 56.0579C108.382 57.0322 107.592 57.822 106.618 57.822 105.644 57.822 104.854 57.0322 104.854 56.0579 104.854 55.0836 105.644 54.2937 106.618 54.2937 107.592 54.2937 108.382 55.0836 108.382 56.0579Z" fill="#1493E0" transform="matrix(1.00442 0 0 1 109.07 89.7748)"/><path d="M116.004 58.2502C116.004 59.2245 115.214 60.0143 114.24 60.0143 113.265 60.0143 112.475 59.2245 112.475 58.2502 112.475 57.2759 113.265 56.4861 114.24 56.4861 115.214 56.4861 116.004 57.2759 116.004 58.2502Z" fill="#1493E0" transform="matrix(1.00442 0 0 1 109.07 89.7748)"/><path d="M115.661 72.7742C115.661 73.7485 114.871 74.5383 113.897 74.5383 112.923 74.5383 112.133 73.7485 112.133 72.7742 112.133 71.7999 112.923 71.0101 113.897 71.0101 114.871 71.0101 115.661 71.7999 115.661 72.7742Z" fill="#1493E0" transform="matrix(1.00442 0 0 1 109.07 89.7748)"/><path d="M109.084 73.6991C109.084 74.6733 108.294 75.4632 107.32 75.4632 106.346 75.4632 105.556 74.6733 105.556 73.6991 105.556 72.7248 106.346 71.9349 107.32 71.9349 108.294 71.9349 109.084 72.7248 109.084 73.6991Z" fill="#1493E0" transform="matrix(1.00442 0 0 1 109.07 89.7748)"/><path d="M105.573 97.8144C105.573 98.7887 104.783 99.5785 103.809 99.5785 102.835 99.5785 102.045 98.7887 102.045 97.8144 102.045 96.8401 102.835 96.0503 103.809 96.0503 104.783 96.0503 105.573 96.8401 105.573 97.8144Z" fill="#1493E0" transform="matrix(1.00442 0 0 1 109.07 89.7748)"/><path d="M101.754 89.4391C101.754 90.4134 100.964 91.2032 99.9896 91.2032 99.0153 91.2032 98.2254 90.4134 98.2254 89.4391 98.2254 88.4648 99.0153 87.675 99.9896 87.675 100.964 87.675 101.754 88.4648 101.754 89.4391Z" fill="#1493E0" transform="matrix(1.00442 0 0 1 109.07 89.7748)"/><path d="M97.626 105.213C97.626 106.188 96.8362 106.978 95.8619 106.978 94.8876 106.978 94.0977 106.188 94.0977 105.213 94.0977 104.239 94.8876 103.449 95.8619 103.449 96.8362 103.449 97.626 104.239 97.626 105.213Z" fill="#1493E0" transform="matrix(1.00442 0 0 1 109.07 89.7748)"/><path d="M89.7303 101.874C89.7303 102.848 88.9405 103.638 87.9662 103.638 86.9919 103.638 86.202 102.848 86.202 101.874 86.202 100.899 86.9919 100.109 87.9662 100.109 88.9405 100.109 89.7303 100.899 89.7303 101.874Z" fill="#1493E0" transform="matrix(1.00442 0 0 1 109.07 89.7748)"/><path d="M76.251 105.864C76.251 106.839 75.4612 107.628 74.4869 107.628 73.5126 107.628 72.7228 106.839 72.7228 105.864 72.7228 104.89 73.5126 104.1 74.4869 104.1 75.4612 104.1 76.251 104.89 76.251 105.864Z" fill="#1493E0" transform="matrix(1.00442 0 0 1 109.07 89.7748)"/><path d="M74.4869 116.278C74.4869 117.252 73.6971 118.042 72.7228 118.042 71.7485 118.042 70.9587 117.252 70.9587 116.278 70.9587 115.303 71.7485 114.514 72.7228 114.514 73.6971 114.514 74.4869 115.303 74.4869 116.278Z" fill="#1493E0" transform="matrix(1.00442 0 0 1 109.07 89.7748)"/><path d="M68.6636 116.295C68.6636 117.269 67.8738 118.059 66.8995 118.059 65.9252 118.059 65.1354 117.269 65.1354 116.295 65.1354 115.321 65.9252 114.531 66.8995 114.531 67.8738 114.531 68.6636 115.321 68.6636 116.295Z" fill="#1493E0" transform="matrix(1.00442 0 0 1 109.07 89.7748)"/><path d="M69.1432 88.754C69.1432 89.7283 68.3533 90.5181 67.3791 90.5181 66.4048 90.5181 65.6149 89.7283 65.6149 88.754 65.6149 87.7797 66.4048 86.9899 67.3791 86.9899 68.3534 86.9899 69.1432 87.7797 69.1432 88.754Z" fill="#1493E0" transform="matrix(1.00442 0 0 1 109.07 89.7748)"/><path d="M80.0362 46.0726C80.0362 47.0469 79.2463 47.8367 78.2721 47.8367 77.2978 47.8367 76.5079 47.0469 76.5079 46.0726 76.5079 45.0983 77.2978 44.3085 78.2721 44.3085 79.2464 44.3085 80.0362 45.0983 80.0362 46.0726Z" fill="#1493E0" transform="matrix(1.00442 0 0 1 109.07 89.7748)"/><path d="M80.7727 83.5473C80.7727 84.5216 79.9828 85.3114 79.0085 85.3114 78.0342 85.3114 77.2444 84.5216 77.2444 83.5473 77.2444 82.573 78.0342 81.7832 79.0085 81.7832 79.9828 81.7832 80.7727 82.573 80.7727 83.5473Z" fill="#1493E0" transform="matrix(1.00442 0 0 1 109.07 89.7748)"/><path d="M88.1374 55.3556C88.1374 56.3299 87.3476 57.1198 86.3733 57.1198 85.399 57.1198 84.6092 56.3299 84.6092 55.3556 84.6092 54.3813 85.399 53.5915 86.3733 53.5915 87.3476 53.5915 88.1374 54.3814 88.1374 55.3556Z" fill="#1493E0" transform="matrix(1.00442 0 0 1 109.07 89.7748)"/><path d="M89.1651 70.3078C89.1651 71.2821 88.3752 72.072 87.4009 72.072 86.4266 72.072 85.6368 71.2821 85.6368 70.3078 85.6368 69.3335 86.4267 68.5437 87.4009 68.5437 88.3752 68.5437 89.1651 69.3335 89.1651 70.3078Z" fill="#1493E0" transform="matrix(1.00442 0 0 1 109.07 89.7748)"/><path d="M134.107 60.511 134.107 75.4632 128.027 75.4632 128.027 55.0131 135.837 55.0131C138.218 55.0131 140.05 55.5954 141.369 56.7772 142.825 58.096 143.562 59.7745 143.562 61.7955 143.562 63.8679 142.654 65.5978 140.855 67.0194L144.367 75.446 137.978 75.446 135.032 68.852 135.032 63.5939 135.512 63.5939C136.796 63.5939 137.43 63.0458 137.43 61.9497 137.43 60.9734 136.693 60.4939 135.221 60.4939L134.107 60.4939Z" fill="#10539B" transform="matrix(1.00442 0 0 1 109.07 89.7748)"/><path d="M158.822 62.9773 158.822 67.5332 154.848 67.5332C154.318 67.5332 153.924 67.6188 153.701 67.773 153.478 67.9271 153.358 68.2012 153.358 68.578 153.358 69.0061 153.478 69.2973 153.701 69.4172 153.924 69.5542 154.403 69.6227 155.105 69.6227L159.199 69.6227 159.199 75.4632 154.42 75.4632C152.177 75.4632 150.464 74.9322 149.265 73.8532 148.083 72.7742 147.484 71.2327 147.484 69.1946L147.484 61.179C147.484 59.2264 148.049 57.7021 149.162 56.6231 150.293 55.544 151.868 55.0131 153.906 55.0131L159.199 55.0131 159.199 60.8878 155.311 60.8878C154.266 60.8878 153.735 61.2303 153.735 61.8983 153.735 62.2922 153.855 62.5834 154.112 62.7375 154.369 62.8917 154.814 62.9773 155.448 62.9773L158.822 62.9773Z" fill="#10539B" transform="matrix(1.00442 0 0 1 109.07 89.7748)"/><path d="M172.901 64.005 178.69 64.005C179.94 65.5464 180.557 67.1907 180.557 68.9034 180.557 70.9073 179.82 72.5858 178.364 73.9388 176.909 75.2919 175.093 75.977 172.969 75.977 170.195 75.977 167.831 74.9151 165.896 72.8084 163.96 70.7018 162.984 68.1327 162.984 65.1011 162.984 62.0696 163.977 59.5347 165.947 57.5137 167.917 55.4927 170.383 54.4821 173.346 54.4821 174.357 54.4821 175.47 54.6877 176.703 55.0987L176.703 61.179C175.744 60.7336 174.87 60.511 174.083 60.511 172.661 60.511 171.496 60.9563 170.589 61.8469 169.681 62.7375 169.235 63.8851 169.235 65.3066 169.235 66.7625 169.647 67.91 170.486 68.7492 171.325 69.6056 172.455 70.0167 173.894 70.0167 174.802 70.0167 175.264 69.7598 175.264 69.2288 175.264 68.8349 174.973 68.6294 174.374 68.6294L172.918 68.6294 172.918 64.005Z" fill="#10539B" transform="matrix(1.00442 0 0 1 109.07 89.7748)"/><path d="M198.934 55.0131 198.934 68.2697C198.934 70.599 198.232 72.4659 196.845 73.8703 195.457 75.2748 193.591 75.9599 191.278 75.9599 188.966 75.9599 187.202 75.2748 185.986 73.9217 184.77 72.5686 184.153 70.6161 184.153 68.0641L184.153 54.996 190.234 54.996 190.234 68.047C190.234 69.2973 190.679 69.9139 191.57 69.9139 192.426 69.9139 192.854 69.2973 192.854 68.047L192.854 54.996 198.934 54.996Z" fill="#10539B" transform="matrix(1.00442 0 0 1 109.07 89.7748)"/><path d="M203.747 55.0131 209.827 55.0131 209.827 67.1564C209.827 68.0984 209.981 68.7321 210.29 69.0575 210.598 69.3658 211.198 69.5371 212.088 69.5371L212.396 69.5371 212.396 75.4632 210.786 75.4632C208.577 75.4632 206.847 74.8123 205.597 73.5278 204.364 72.2261 203.747 70.4448 203.747 68.1498L203.747 55.0131Z" fill="#10539B" transform="matrix(1.00442 0 0 1 109.07 89.7748)"/><path d="M230.363 55.0131 230.363 68.2697C230.363 70.599 229.661 72.4659 228.274 73.8703 226.886 75.2748 225.019 75.9599 222.707 75.9599 220.395 75.9599 218.631 75.2748 217.415 73.9217 216.199 72.5686 215.582 70.6161 215.582 68.0641L215.582 54.996 221.662 54.996 221.662 68.047C221.662 69.2973 222.108 69.9139 222.998 69.9139 223.855 69.9139 224.283 69.2973 224.283 68.047L224.283 54.996 230.363 54.996Z" fill="#10539B" transform="matrix(1.00442 0 0 1 109.07 89.7748)"/><path d="M245.195 54.9275 245.195 60.7508C244.75 60.5966 244.425 60.5281 244.185 60.5281 243.722 60.5281 243.328 60.6994 243.003 61.0419 242.678 61.3845 242.506 61.7955 242.506 62.2751 242.506 62.6862 242.678 63.2 243.037 63.8337L243.5 64.6387C244.339 66.0945 244.75 67.4989 244.75 68.8691 244.75 70.8559 244.048 72.5344 242.626 73.9217 241.205 75.2919 239.492 75.9941 237.454 75.9941 236.478 75.9941 235.501 75.7715 234.542 75.3261L234.542 69.4172C235.124 69.794 235.638 69.9653 236.084 69.9653 236.615 69.9653 237.06 69.8111 237.402 69.5028 237.762 69.1946 237.933 68.8177 237.933 68.3553 237.933 68.0641 237.642 67.3962 237.077 66.3857 236.169 64.7928 235.707 63.1828 235.707 61.59 235.707 59.6546 236.392 58.0104 237.762 56.6059 239.132 55.2186 240.777 54.5164 242.678 54.5164 243.568 54.4993 244.39 54.6534 245.195 54.9275Z" fill="#10539B" transform="matrix(1.00442 0 0 1 109.07 89.7748)"/></g></svg>